<svg xmlns="http://www.w3.org/2000/svg" viewBox="0 0 1024 1024"><path d="M962.422 266.934s61.122 121.76 61.094 245.012c-.024 123.258-61.11 245.018-61.11 245.018l-902.694.102S.4 635.728.484 512.098C.426 388.364 59.728 267.036 59.728 267.036l902.694-.102zm-17.99 29.534l-864.568.068c-32.57 74.96-49.59 132.842-49.618 215.424-.006 82.704 17.114 140.384 49.574 215.52l864.566-.066c32.55-75.078 49.714-132.864 49.716-215.566.032-82.582-17.114-140.384-49.67-215.38zm-18.656 28.258c26.656 63.302 39.944 116.834 39.982 187.168-.08 70.35-13.318 123.736-40.002 187.152l-827.182.036c-5.92-13.916-11.428-27.24-15.716-40.622-2.55-7.956-4.62-12.918-8.888-28.6-10.088-37.058-15.332-74.194-15.258-117.966-.016-70.214 13.07-123.692 39.758-187.11l827.306-.058zm-616.428 31.76c-42.314.296-84.648-.274-126.962.296-.274.846-.824 2.56-1.1 3.406 15.064 7.004 31.566 12.906 42.948 25.622 5.564 6.136 8.76 15.254 4.718 23.06-26.128 57.102-52.406 114.142-78.554 171.244-10.854 24.732-27.716 46.524-47.456 64.824-2.412 2.094-4.464 4.57-5.818 7.49 48.894.634 97.85.318 146.744.168 1.1-.486 3.322-1.502 4.442-1.988-14.406-11.022-30.634-21.22-39.414-37.722-4.93-8.612-6.008-19.422-1.608-28.498l44.682-97.364c2.54-5.818 5.058-11.678 8.738-16.884 1.926 3.132 3.682 6.39 5.12 9.796 27.208 64.676 54.86 129.204 82.026 193.902 2.792-.296 5.48-1.268 6.092-4.38 28.076-61.524 56.404-122.92 84.564-184.402 2.222-5.14 4.486-10.346 7.914-14.81 1.67 2.646 3.194 5.396 4.442 8.272 16.122 38.294 32.412 76.504 48.576 114.776 5.332 12.272 6.854 27.356-.528 39.14-3.978 7.85-11.996 11.912-18.47 17.286l-.508 2.92c55.896.126 111.792.296 167.668-.086-1.46-5.204-6.454-7.934-9.88-11.7-13.858-14.048-26.214-30-34.126-48.194a203646.632 203646.632 0 0 0-78.154-184.424c-2.75-6.516-4.782-13.52-4.126-20.67.212-10.05 7.152-18.872 15.698-23.57 2.984-1.946 7.406-3.024 7.574-7.32-49.528-.296-99.076 0-148.604-.148-2.772.36-7.914-1.268-6.814 3.364 10.664 6.728 22.872 13.054 28.626 24.944 3.088 6.158 2.074 13.308-.952 19.252-13.52 29.198-26.722 58.542-40.388 87.654-4.38-5.458-6.306-12.292-9.118-18.598-15.996-37.658-31.864-75.338-47.922-112.956-1.142-4.548-6.6-3.426-10.07-3.702zm532.466 0q-17.902 0-33.75 9.098-15.846 9.098-25.604 25.164-9.758 16.068-9.758 35.142 0 28.32 16.728 46.588t43.872 18.268h10.566l26.998-10.712q-4.988 40.792-25.532 60.674-20.542 19.884-57.078 20.176v11.886q22.01 0 41.452-4.916t35.95-15.186q16.506-10.272 28.392-25.166 11.886-14.892 18.562-35.948t6.676-46.442q0-18.782-4.476-34.042-4.474-15.26-11.958-25.238t-17.608-16.726q-10.124-6.75-20.91-9.686-10.784-2.934-22.522-2.934zm-.588 14.966q15.7.002 23.624 18.856 7.924 18.856 7.924 60.82 0 7.778-1.32 24.652h-16.728q-20.25 0-29.346-14.6-9.098-14.6-9.098-46.44 0-10.86 2.714-20.544 2.716-9.684 8.51-16.214 5.796-6.528 13.72-6.528zM717.09 356.486h-2.934q-13.792 12.472-34.702 23.844t-36.022 15.188l-.002 3.08h30.962l.586.88v155.978L643.43 566.9v2.936h105.208V566.9q-15.994-3.52-23.77-14.086-7.778-10.564-7.778-30.52V356.486z"/></svg>
