<svg id="Layer_1" xmlns="http://www.w3.org/2000/svg" viewBox="0 0 34.47 21.28"><path class="st0" d="M4.43 9.37V-3.57"/><path d="M28.45 0l1.34 2.57v2.7h-1.03c-1.28-1.64-2.89-2.74-4.49-3.47-.64-.29-1.28-.53-1.9-.72-.31-.09-.61-.18-.91-.25-.22-.05-.44-.1-.65-.15-.64-.13-1.22-.21-1.73-.27-.67-.07-1.2-.09-1.52-.09h-.32-.32a17.27 17.27 0 0 0-3.25.36c-.21.04-.43.09-.65.15-.3.07-.6.15-.91.25-.62.19-1.26.42-1.9.72-1.61.73-3.22 1.83-4.5 3.47H4.68v-2.7L6.03 0H0v19.45l4.68-5.15V9.37h1.03v4.93l1.83 2.49 1.88-2.66s1.39-1.45 1.39-7.26h1.01s.14 4.67-1.09 7.02c0 0 4.18 2.4 6.51 7.39 2.33-4.99 6.51-7.39 6.51-7.39-1.23-2.36-1.09-7.02-1.09-7.02h1.01c0 5.81 1.39 7.26 1.39 7.26l1.88 2.66 1.83-2.49V9.37h1.03v4.93l4.68 5.15V0h-6.03zm-9.49 10.42c-.49.33-1.08.53-1.72.53s-1.23-.19-1.72-.53a3.07 3.07 0 0 1 0-5.1c.49-.33 1.08-.53 1.72-.53s1.23.19 1.72.53c.82.55 1.36 1.49 1.36 2.55s-.55 2-1.36 2.55z" fill="#231f20"/></svg>
